<svg width="40" height="40" viewBox="0 0 40 40" fill="none" xmlns="http://www.w3.org/2000/svg">
<path d="M13.3333 30L20 24.9167L26.6666 30L24.1666 21.75L30.8333 17H22.6666L20 8.33337L17.3333 17H9.16665L15.8333 21.75L13.3333 30ZM20 36.6667C17.6944 36.6667 15.5278 36.2292 13.5 35.3542C11.4722 34.4792 9.70831 33.2917 8.20831 31.7917C6.70831 30.2917 5.52081 28.5278 4.64581 26.5C3.77081 24.4723 3.33331 22.3056 3.33331 20C3.33331 17.6945 3.77081 15.5278 4.64581 13.5C5.52081 11.4723 6.70831 9.70837 8.20831 8.20837C9.70831 6.70837 11.4722 5.52087 13.5 4.64587C15.5278 3.77087 17.6944 3.33337 20 3.33337C22.3055 3.33337 24.4722 3.77087 26.5 4.64587C28.5278 5.52087 30.2916 6.70837 31.7916 8.20837C33.2916 9.70837 34.4791 11.4723 35.3541 13.5C36.2291 15.5278 36.6666 17.6945 36.6666 20C36.6666 22.3056 36.2291 24.4723 35.3541 26.5C34.4791 28.5278 33.2916 30.2917 31.7916 31.7917C30.2916 33.2917 28.5278 34.4792 26.5 35.3542C24.4722 36.2292 22.3055 36.6667 20 36.6667ZM20 33.3334C23.7222 33.3334 26.875 32.0417 29.4583 29.4584C32.0416 26.875 33.3333 23.7223 33.3333 20C33.3333 16.2778 32.0416 13.125 29.4583 10.5417C26.875 7.95837 23.7222 6.66671 20 6.66671C16.2778 6.66671 13.125 7.95837 10.5416 10.5417C7.95831 13.125 6.66665 16.2778 6.66665 20C6.66665 23.7223 7.95831 26.875 10.5416 29.4584C13.125 32.0417 16.2778 33.3334 20 33.3334Z" fill="var(--Color-2, white)"/>
</svg>
