<svg width="40" height="40" viewBox="0 0 40 40" fill="none" xmlns="http://www.w3.org/2000/svg">
<path d="M35.4166 26.1667V9.97921C35.4166 6.99398 33.006 4.58337 30.0208 4.58337H9.97909C6.99386 4.58337 4.58325 6.99398 4.58325 9.97921V30.0209C4.58325 33.0061 6.99386 35.4167 9.97909 35.4167H26.1666L35.4166 26.1667ZM9.97909 32.3334C8.70371 32.3334 7.66659 31.2963 7.66659 30.0209V9.97921C7.66659 8.70383 8.70371 7.66671 9.97909 7.66671H30.0208C31.2961 7.66671 32.3333 8.70383 32.3333 9.97921V24.625H30.0208C27.0355 24.625 24.6249 27.0356 24.6249 30.0209V32.3334H9.97909ZM16.5522 16.5803C16.1458 15.1508 14.6601 14.3099 13.2306 14.7163C11.8011 15.1228 10.9601 16.6084 11.3666 18.0519C11.4787 18.4444 11.6749 18.7947 11.9272 19.0891L16.6083 17.7716C16.6783 17.3792 16.6643 16.9728 16.5522 16.5803ZM26.1946 13.8614C25.8022 12.4319 24.3026 11.591 22.873 11.9974C21.4435 12.4038 20.6026 13.8894 21.009 15.333C21.1211 15.7254 21.3173 16.0758 21.5696 16.3701L26.2507 15.0527C26.3208 14.6603 26.3067 14.2538 26.1946 13.8614ZM27.5681 18.6826L12.712 22.8731C14.7162 25.522 18.192 26.8114 21.5696 25.8584C24.9473 24.9053 27.2317 21.9762 27.5681 18.6826Z" fill="var(--Color-2, white)"/>
</svg>
