<svg width="40" height="40" viewBox="0 0 40 40" fill="none" xmlns="http://www.w3.org/2000/svg">
<path d="M13.3333 30L19.9999 24.9167L26.6666 30L24.1666 21.75L30.8333 17H22.6666L19.9999 8.33337L17.3333 17H9.16659L15.8333 21.75L13.3333 30ZM19.9999 36.6667C17.6944 36.6667 15.5277 36.2292 13.4999 35.3542C11.4721 34.4792 9.70825 33.2917 8.20825 31.7917C6.70825 30.2917 5.52075 28.5278 4.64575 26.5C3.77075 24.4723 3.33325 22.3056 3.33325 20C3.33325 17.6945 3.77075 15.5278 4.64575 13.5C5.52075 11.4723 6.70825 9.70837 8.20825 8.20837C9.70825 6.70837 11.4721 5.52087 13.4999 4.64587C15.5277 3.77087 17.6944 3.33337 19.9999 3.33337C22.3055 3.33337 24.4721 3.77087 26.4999 4.64587C28.5277 5.52087 30.2916 6.70837 31.7916 8.20837C33.2916 9.70837 34.4791 11.4723 35.3541 13.5C36.2291 15.5278 36.6666 17.6945 36.6666 20C36.6666 22.3056 36.2291 24.4723 35.3541 26.5C34.4791 28.5278 33.2916 30.2917 31.7916 31.7917C30.2916 33.2917 28.5277 34.4792 26.4999 35.3542C24.4721 36.2292 22.3055 36.6667 19.9999 36.6667ZM19.9999 33.3334C23.7221 33.3334 26.8749 32.0417 29.4583 29.4584C32.0416 26.875 33.3333 23.7223 33.3333 20C33.3333 16.2778 32.0416 13.125 29.4583 10.5417C26.8749 7.95837 23.7221 6.66671 19.9999 6.66671C16.2777 6.66671 13.1249 7.95837 10.5416 10.5417C7.95825 13.125 6.66659 16.2778 6.66659 20C6.66659 23.7223 7.95825 26.875 10.5416 29.4584C13.1249 32.0417 16.2777 33.3334 19.9999 33.3334Z" fill="var(--Color-2, white)"/>
</svg>
