<svg width="40" height="40" viewBox="0 0 40 40" fill="none" xmlns="http://www.w3.org/2000/svg">
<path d="M8.33333 35C7.41667 35 6.625 34.6806 5.95833 34.0417C5.31944 33.375 5 32.5833 5 31.6667V8.33333C5 7.41667 5.31944 6.63889 5.95833 6C6.625 5.33333 7.41667 5 8.33333 5H31.6667C32.5833 5 33.3611 5.33333 34 6C34.6667 6.63889 35 7.41667 35 8.33333V31.6667C35 32.5833 34.6667 33.375 34 34.0417C33.3611 34.6806 32.5833 35 31.6667 35H8.33333ZM20 26.6667C21.0556 26.6667 22.0139 26.3611 22.875 25.75C23.7361 25.1389 24.3333 24.3333 24.6667 23.3333H31.6667V8.33333H8.33333V23.3333H15.3333C15.6667 24.3333 16.2639 25.1389 17.125 25.75C17.9861 26.3611 18.9444 26.6667 20 26.6667Z" fill="var(--Schemes-On-Surface, #1D1B20)"/>
</svg>
