<svg width="40" height="40" viewBox="0 0 40 40" fill="none" xmlns="http://www.w3.org/2000/svg">
<path d="M35.4168 26.1667V9.97921C35.4168 6.99398 33.0062 4.58337 30.021 4.58337H9.97933C6.9941 4.58337 4.5835 6.99398 4.5835 9.97921V30.0209C4.5835 33.0061 6.9941 35.4167 9.97933 35.4167H26.1668L35.4168 26.1667ZM9.97933 32.3334C8.70395 32.3334 7.66683 31.2963 7.66683 30.0209V9.97921C7.66683 8.70383 8.70395 7.66671 9.97933 7.66671H30.021C31.2964 7.66671 32.3335 8.70383 32.3335 9.97921V24.625H30.021C27.0358 24.625 24.6252 27.0356 24.6252 30.0209V32.3334H9.97933ZM16.5524 16.5803C16.146 15.1508 14.6604 14.3099 13.2308 14.7163C11.8013 15.1228 10.9604 16.6084 11.3668 18.0519C11.479 18.4444 11.6752 18.7947 11.9274 19.0891L16.6085 17.7716C16.6786 17.3792 16.6646 16.9728 16.5524 16.5803ZM26.1949 13.8614C25.8024 12.4319 24.3028 11.591 22.8733 11.9974C21.4437 12.4038 20.6028 13.8894 21.0093 15.333C21.1214 15.7254 21.3176 16.0758 21.5699 16.3701L26.2509 15.0527C26.321 14.6603 26.307 14.2538 26.1949 13.8614ZM27.5683 18.6826L12.7123 22.8731C14.7165 25.522 18.1922 26.8114 21.5699 25.8584C24.9475 24.9053 27.232 21.9762 27.5683 18.6826Z" fill="var(--Color-2, white)"/>
</svg>
