<svg width="90" height="50" viewBox="0 0 90 50" fill="none" xmlns="http://www.w3.org/2000/svg">
<path d="M20 10V0H90V10H20ZM20 30V20H90V30H20ZM20 50V40H90V50H20ZM5 10C3.58333 10 2.39583 9.52083 1.4375 8.5625C0.479167 7.60417 0 6.41667 0 5C0 3.58333 0.479167 2.39583 1.4375 1.4375C2.39583 0.479167 3.58333 0 5 0C6.41667 0 7.60417 0.479167 8.5625 1.4375C9.52083 2.39583 10 3.58333 10 5C10 6.41667 9.52083 7.60417 8.5625 8.5625C7.60417 9.52083 6.41667 10 5 10ZM5 30C3.58333 30 2.39583 29.5208 1.4375 28.5625C0.479167 27.6042 0 26.4167 0 25C0 23.5833 0.479167 22.3958 1.4375 21.4375C2.39583 20.4792 3.58333 20 5 20C6.41667 20 7.60417 20.4792 8.5625 21.4375C9.52083 22.3958 10 23.5833 10 25C10 26.4167 9.52083 27.6042 8.5625 28.5625C7.60417 29.5208 6.41667 30 5 30ZM5 50C3.58333 50 2.39583 49.5208 1.4375 48.5625C0.479167 47.6042 0 46.4167 0 45C0 43.5833 0.479167 42.3958 1.4375 41.4375C2.39583 40.4792 3.58333 40 5 40C6.41667 40 7.60417 40.4792 8.5625 41.4375C9.52083 42.3958 10 43.5833 10 45C10 46.4167 9.52083 47.6042 8.5625 48.5625C7.60417 49.5208 6.41667 50 5 50Z" fill="var(--Schemes-On-Surface, #1D1B20)"/>
</svg>
