<svg width="93" height="93" viewBox="0 0 93 93" fill="none" xmlns="http://www.w3.org/2000/svg">
<path d="M92.5 64.75V16.1875C92.5 7.23182 85.2682 0 76.3125 0H16.1875C7.23182 0 0 7.23182 0 16.1875V76.3125C0 85.2682 7.23182 92.5 16.1875 92.5H64.75L92.5 64.75ZM16.1875 83.25C12.3614 83.25 9.25 80.1386 9.25 76.3125V16.1875C9.25 12.3614 12.3614 9.25 16.1875 9.25H76.3125C80.1386 9.25 83.25 12.3614 83.25 16.1875V60.125H76.3125C67.3568 60.125 60.125 67.3568 60.125 76.3125V83.25H16.1875ZM35.9068 35.9909C34.6875 31.7023 30.2307 29.1795 25.942 30.3989C21.6534 31.6182 19.1307 36.075 20.35 40.4057C20.6864 41.583 21.275 42.6341 22.0318 43.517L36.075 39.5648C36.2852 38.3875 36.2432 37.1682 35.9068 35.9909ZM64.8341 27.8341C63.6568 23.5455 59.158 21.0227 54.8693 22.242C50.5807 23.4614 48.058 27.9182 49.2773 32.2489C49.6136 33.4261 50.2023 34.4773 50.9591 35.3602L65.0023 31.408C65.2125 30.2307 65.1705 29.0114 64.8341 27.8341ZM68.9545 42.2977L24.3864 54.8693C30.3989 62.8159 40.8261 66.6841 50.9591 63.825C61.092 60.9659 67.9455 52.1784 68.9545 42.2977Z" fill="var(--Schemes-On-Surface, #1D1B20)"/>
</svg>
