<svg width="90" height="100" viewBox="0 0 90 100" fill="none" xmlns="http://www.w3.org/2000/svg">
<path d="M30 72.5C26.5 72.5 23.5417 71.2917 21.125 68.875C18.7083 66.4583 17.5 63.5 17.5 60C17.5 56.5 18.7083 53.5417 21.125 51.125C23.5417 48.7083 26.5 47.5 30 47.5C33.5 47.5 36.4583 48.7083 38.875 51.125C41.2917 53.5417 42.5 56.5 42.5 60C42.5 63.5 41.2917 66.4583 38.875 68.875C36.4583 71.2917 33.5 72.5 30 72.5ZM10 100C7.25 100 4.89583 99.0208 2.9375 97.0625C0.979167 95.1042 0 92.75 0 90V20C0 17.25 0.979167 14.8958 2.9375 12.9375C4.89583 10.9792 7.25 10 10 10H15V0H25V10H65V0H75V10H80C82.75 10 85.1042 10.9792 87.0625 12.9375C89.0208 14.8958 90 17.25 90 20V90C90 92.75 89.0208 95.1042 87.0625 97.0625C85.1042 99.0208 82.75 100 80 100H10ZM10 90H80V40H10V90Z" fill="var(--Schemes-On-Surface, #1D1B20)"/>
</svg>
